<?xml version="1.0" encoding="utf-8"?>
<!-- Generator: Adobe Illustrator 27.4.1, SVG Export Plug-In . SVG Version: 6.00 Build 0)  -->
<svg version="1.1" id="Capa_1" xmlns="http://www.w3.org/2000/svg" xmlns:xlink="http://www.w3.org/1999/xlink" x="0px" y="0px"
	 viewBox="0 0 512 512" style="enable-background:new 0 0 512 512;" xml:space="preserve">
<style type="text/css">
	.st0{fill:#FFC107;}
</style>
<g>
	<g>
		<g>
			<path class="st0" d="M293.6,231c-13.8,0-25,11.2-25,25s11.2,25,25,25s25-11.2,25-25C318.6,242.2,307.4,231,293.6,231z"/>
		</g>
	</g>
	<g>
		<g>
			<path class="st0" d="M310.2,155v45.2c12.9,3.8,23.9,12,31.3,22.8l43-14C369.9,180.9,342.6,160.3,310.2,155z"/>
		</g>
	</g>
	<g>
		<g>
			<path class="st0" d="M394.8,240.6l-43,14c0,0.5,0,1,0,1.5c0,13.3-4.5,25.6-12,35.4l26.5,36.5c18.3-18.5,29.6-43.9,29.6-71.9
				C395.9,250.8,395.5,245.6,394.8,240.6z"/>
		</g>
	</g>
	<g>
		<g>
			<path class="st0" d="M293.6,37.6H91.8c-9.2,0-16.6,7.4-16.6,16.6s7.4,16.6,16.6,16.6H178c-18.2,11.4-34.6,25.4-48.7,41.5H16.6
				c-9.2,0-16.6,7.4-16.6,16.6s7.4,16.6,16.6,16.6h88.8C86.2,177.9,75.2,215.7,75.2,256c0,46.9,14.9,90.4,40.2,126.1H68.3
				c-9.2,0-16.6,7.4-16.6,16.6s7.4,16.6,16.6,16.6h76c10.3,9.7,21.6,18.4,33.7,26H18.3c-9.2,0-16.6,7.4-16.6,16.6
				s7.4,16.6,16.6,16.6h275.3C414,474.4,512,376.4,512,256S414,37.6,293.6,37.6z M374.2,364.9c-0.3,0.3-0.6,0.5-0.9,0.8
				c-0.4,0.3-0.7,0.5-1.1,0.8c-22.2,15.8-49.3,25.1-78.5,25.1s-56.3-9.3-78.5-25.1c-0.4-0.2-0.8-0.5-1.1-0.8
				c-0.3-0.2-0.6-0.5-0.9-0.8c-33.3-24.7-54.9-64.3-54.9-108.9c0-74.7,60.8-135.5,135.5-135.5S429.1,181.3,429.1,256
				C429.1,300.6,407.5,340.1,374.2,364.9z"/>
		</g>
	</g>
	<g>
		<g>
			<path class="st0" d="M202.7,209l43,14c7.5-10.8,18.5-19,31.3-22.8V155C244.6,160.3,217.3,180.9,202.7,209z"/>
		</g>
	</g>
	<g>
		<g>
			<path class="st0" d="M313,310.9c-6.1,2.1-12.6,3.3-19.4,3.3c-6.8,0-13.3-1.2-19.4-3.3l-26.5,36.5c13.8,7,29.4,10.9,45.9,10.9
				s32.1-3.9,45.9-10.9L313,310.9z"/>
		</g>
	</g>
	<g>
		<g>
			<path class="st0" d="M235.4,256c0-0.5,0-1,0-1.5l-43-14c-0.8,5-1.2,10.2-1.2,15.4c0,28,11.3,53.4,29.6,71.9l26.5-36.5
				C239.9,281.6,235.4,269.3,235.4,256z"/>
		</g>
	</g>
</g>
</svg>
